# xmcd
#
# Track frame offsets: 
#        150
#        22775
#        41220
#        62952
#        75842
#        99875
#        115050
#        135682
#        154357
#        174585
#        191972
#        209330
#
# Disc length: 3071 seconds
#
# Revision: 2
# Processed by: cddbd v1.5PL3 Copyright (c) Steve Scherf et al.
# Submitted via: ExactAudioCopy v0.95a4
#
DISCID=9d0bfd0c
DTITLE=Vargas Blues Band - All Around Blues
DYEAR=1998
DGENRE=Blues Latino
TTITLE0=Riding High
TTITLE1=Rock Me Baby
TTITLE2=Blues Latino
TTITLE3=All around blues
TTITLE4=Hideway
TTITLE5=Messing with the kid
TTITLE6=I wonder if you ever
TTITLE7=Blue midnight
TTITLE8=You don't know my name
TTITLE9=Everything is going to be alright
TTITLE10=Don't let go
TTITLE11=Hey hey blues
EXTD=
EXTT0=
EXTT1=
EXTT2=
EXTT3=
EXTT4=
EXTT5=
EXTT6=
EXTT7=
EXTT8=
EXTT9=
EXTT10=
EXTT11=
PLAYORDER=
